<?xml version="1.0" encoding="utf-8"?>
<!-- Generator: Adobe Illustrator 25.4.1, SVG Export Plug-In . SVG Version: 6.00 Build 0)  -->
<svg version="1.1" id="Layer_1" xmlns="http://www.w3.org/2000/svg" xmlns:xlink="http://www.w3.org/1999/xlink" x="0px" y="0px"
	 viewBox="0 0 30 60" style="enable-background:new 0 0 30 60;" xml:space="preserve">
<style type="text/css">
	.st0{fill:none;stroke:#B0B4BC;stroke-width:1.3035;stroke-miterlimit:10;}
	.st1{fill:none;stroke:#B0B4BC;stroke-width:1.3035;stroke-linecap:round;stroke-linejoin:round;}
	.st2{fill:none;stroke:#B0B4BC;stroke-width:1.3035;stroke-linecap:round;stroke-linejoin:round;stroke-dasharray:0.9243,1.7331;}
	.st3{fill:none;stroke:#3D76C7;stroke-width:1.3035;stroke-miterlimit:10;}
	.st4{fill:none;stroke:#3D76C7;stroke-width:1.3035;stroke-linecap:round;stroke-linejoin:round;}
	.st5{fill:none;stroke:#3D76C7;stroke-width:1.3035;stroke-linecap:round;stroke-linejoin:round;stroke-dasharray:0.9243,1.7331;}
</style>
<g>
	<ellipse class="st0" cx="6.7" cy="23.1" rx="2.1" ry="2.1"/>
	<ellipse class="st0" cx="23.3" cy="23.1" rx="2.1" ry="2.1"/>
	<ellipse class="st0" cx="15" cy="6.9" rx="2.1" ry="2.1"/>
	<line class="st1" x1="6.7" y1="20.8" x2="7" y2="20.4"/>
	<line class="st2" x1="7.8" y1="18.9" x2="12.5" y2="10.4"/>
	<line class="st1" x1="12.9" y1="9.6" x2="13.1" y2="9.2"/>
	<line class="st1" x1="23.3" y1="20.8" x2="23" y2="20.4"/>
	<line class="st2" x1="22.2" y1="18.9" x2="17.5" y2="10.4"/>
	<line class="st1" x1="17.1" y1="9.6" x2="16.9" y2="9.2"/>
</g>
<g>
	<ellipse class="st3" cx="6.7" cy="53.1" rx="2.1" ry="2.1"/>
	<ellipse class="st3" cx="23.3" cy="53.1" rx="2.1" ry="2.1"/>
	<ellipse class="st3" cx="15" cy="36.9" rx="2.1" ry="2.1"/>
	<line class="st4" x1="6.7" y1="50.8" x2="7" y2="50.4"/>
	<line class="st5" x1="7.8" y1="48.9" x2="12.5" y2="40.4"/>
	<line class="st4" x1="12.9" y1="39.6" x2="13.1" y2="39.2"/>
	<line class="st4" x1="23.3" y1="50.8" x2="23" y2="50.4"/>
	<line class="st5" x1="22.2" y1="48.9" x2="17.5" y2="40.4"/>
	<line class="st4" x1="17.1" y1="39.6" x2="16.9" y2="39.2"/>
</g>
</svg>
