<?xml version="1.0" encoding="utf-8"?>
<!-- Generator: Adobe Illustrator 25.4.1, SVG Export Plug-In . SVG Version: 6.00 Build 0)  -->
<svg version="1.1" id="Layer_1" xmlns="http://www.w3.org/2000/svg" xmlns:xlink="http://www.w3.org/1999/xlink" x="0px" y="0px"
	 viewBox="0 0 30 60" style="enable-background:new 0 0 30 60;" xml:space="preserve">
<style type="text/css">
	.st0{fill:#B0B4BC;stroke:#B0B4BC;stroke-width:0.5;stroke-miterlimit:10;}
	.st1{fill:#345B93;stroke:#345B93;stroke-width:0.5;stroke-miterlimit:10;}
</style>
<g>
	<path class="st0" d="M20.9,10.7c0.9,0.4,1.8,1,2.6,1.6c1,0.8,1.8,1.7,2.4,2.7c0.1,0.2,0.1,0.4,0,0.5c-1.1,1.7-2.7,3.1-4.6,4
		S17.3,21,15,21c-1.7,0-3.4-0.3-4.9-0.8L7,22.6c-0.2,0.2-0.6,0.2-0.8,0c-0.2-0.2-0.2-0.5,0-0.7C11.9,17,17.4,12.2,23,7.3
		c0.2-0.2,0.6-0.2,0.8,0C24,7.5,24,7.8,23.8,8L20.9,10.7z M22.8,12.9C22,12.3,21,11.8,20,11.3l-1.9,1.6c0.2,0.2,0.4,0.5,0.5,0.8
		c0.2,0.4,0.3,0.8,0.3,1.3c0,1-0.4,1.8-1.2,2.5l0,0c-0.7,0.6-1.7,1-2.8,1c-0.5,0-1.1-0.1-1.5-0.2c-0.3-0.1-0.6-0.3-0.9-0.4l-1.5,1.3
		c1.2,0.4,2.6,0.6,4,0.6c2.1,0,4.1-0.5,5.8-1.3c1.6-0.8,3-2,4-3.4C24.2,14.2,23.5,13.6,22.8,12.9L22.8,12.9z M8.2,17.8
		c0.2,0.2,0.3,0.5,0.1,0.7s-0.5,0.2-0.8,0.1c-0.7-0.5-1.3-1-1.9-1.6s-1-1.2-1.5-1.8C4,15,4,14.8,4.1,14.7c1.1-1.7,2.7-3.1,4.6-4
		c1.9-0.9,4-1.5,6.3-1.5c0.4,0,0.8,0,1.2,0c0.4,0,0.8,0.1,1.2,0.1c0.3,0,0.5,0.3,0.5,0.6c-0.1,0.3-0.3,0.4-0.7,0.4
		c-0.4-0.1-0.7-0.1-1.1-0.1c-0.3,0-0.7,0-1.1,0c-2.1,0-4,0.5-5.7,1.3s-3.1,2-4.1,3.4c0.3,0.5,0.7,1,1.2,1.4
		C6.9,16.9,7.5,17.4,8.2,17.8L8.2,17.8z M17.8,14.2c-0.1-0.2-0.2-0.3-0.3-0.4l-4,3.5c0.2,0.1,0.3,0.2,0.5,0.2
		c0.3,0.1,0.7,0.2,1.1,0.2c0.8,0,1.5-0.3,2-0.7l0,0c0.5-0.4,0.8-1.1,0.8-1.8C17.9,14.8,17.8,14.4,17.8,14.2"/>
	<path class="st1" d="M20.9,40.7c0.9,0.4,1.8,1,2.6,1.6c1,0.8,1.8,1.7,2.4,2.7c0.1,0.2,0.1,0.4,0,0.5c-1.1,1.7-2.7,3.1-4.6,4
		s-4,1.5-6.3,1.5c-1.7,0-3.4-0.3-4.9-0.8L7,52.7c-0.2,0.2-0.6,0.2-0.8,0C6,52.5,6,52.2,6.2,52c5.6-5,11.2-9.8,16.8-14.7
		c0.2-0.2,0.6-0.2,0.8,0c0.2,0.2,0.2,0.5,0,0.7L20.9,40.7z M22.8,42.8C22,42.2,21,41.7,20,41.2l-1.9,1.6c0.2,0.2,0.4,0.5,0.5,0.8
		c0.2,0.4,0.3,0.8,0.3,1.3c0,1-0.4,1.8-1.2,2.5l0,0c-0.7,0.6-1.7,1-2.8,1c-0.5,0-1.1-0.1-1.5-0.2c-0.3-0.1-0.6-0.3-0.9-0.4l-1.5,1.4
		c1.2,0.4,2.6,0.6,4,0.6c2.1,0,4.1-0.5,5.8-1.3c1.6-0.8,3-2,4-3.4C24.2,44.2,23.5,43.5,22.8,42.8L22.8,42.8z M8.2,47.8
		c0.2,0.2,0.3,0.5,0.1,0.7s-0.5,0.2-0.8,0.1c-0.7-0.5-1.3-1-1.9-1.6s-1-1.2-1.5-1.8C4,45,4,44.8,4.1,44.7c1.1-1.7,2.7-3.1,4.6-4
		s4-1.5,6.3-1.5c0.4,0,0.8,0,1.2,0c0.4,0,0.8,0.1,1.2,0.1c0.3,0,0.5,0.3,0.5,0.6c-0.1,0.3-0.3,0.4-0.7,0.4c-0.4-0.1-0.7-0.1-1.1-0.1
		c-0.3,0-0.7,0-1.1,0c-2.1,0-4,0.5-5.7,1.3s-3.1,2-4.1,3.4c0.3,0.5,0.7,1,1.2,1.4C6.9,47,7.5,47.5,8.2,47.8L8.2,47.8z M17.8,44.2
		c-0.1-0.2-0.2-0.3-0.3-0.4l-4,3.5c0.2,0.1,0.3,0.2,0.5,0.2c0.3,0.1,0.7,0.2,1.1,0.2c0.8,0,1.5-0.3,2-0.7l0,0
		c0.5-0.4,0.8-1.1,0.8-1.8C17.9,44.8,17.8,44.5,17.8,44.2"/>
</g>
</svg>
