<?xml version="1.0" encoding="utf-8"?>
<!-- Generator: Adobe Illustrator 25.4.1, SVG Export Plug-In . SVG Version: 6.00 Build 0)  -->
<svg version="1.1" id="Layer_1" xmlns="http://www.w3.org/2000/svg" xmlns:xlink="http://www.w3.org/1999/xlink" x="0px" y="0px"
	 viewBox="0 0 30 60" style="enable-background:new 0 0 30 60;" xml:space="preserve">
<style type="text/css">
	.st0{fill:#B0B4BC;stroke:#B0B4BC;stroke-width:0.5;stroke-miterlimit:10;}
	.st1{fill:#3D76C7;stroke:#3D76C7;stroke-width:0.5;stroke-miterlimit:10;}
</style>
<g>
	<path class="st0" d="M23.6,11.7h-4c-0.1,0-0.2,0-0.3-0.1l-4.7-4.7c-0.1-0.1-0.2-0.1-0.3-0.1h-4.1c-0.4,0-0.6,0.4-0.4,0.7l2.4,3.6
		c0.2,0.3,0,0.7-0.4,0.7H8.6c-0.2,0-0.3-0.1-0.4-0.2L6.3,8.5C6.2,8.4,6.1,8.3,5.9,8.3H3c-0.3,0-0.5,0.3-0.4,0.6l2.3,8
		c0.1,0.2,0.2,0.3,0.4,0.3h6.6c0.4,0,0.6,0.4,0.4,0.7l-3,4.7c-0.2,0.3,0,0.7,0.4,0.7h4.1c0.1,0,0.3-0.1,0.3-0.1l5.3-5.8
		c0.1-0.1,0.2-0.1,0.3-0.1h3.4c2.1,0,4.4-0.3,4.4-2.2C27.5,12.9,26,11.7,23.6,11.7z M11.7,7.8h2.1c0.1,0,0.2,0,0.3,0.1l3,3
		c0.3,0.3,0.1,0.8-0.3,0.8h-2.6c-0.2,0-0.3-0.1-0.4-0.2l-2.2-3.4C11.5,8,11.6,7.8,11.7,7.8z M23.1,16.1h-3.9h-0.2l-5.4,6
		c-0.1,0.1-0.2,0.1-0.3,0.1h-2.1c-0.2,0-0.3-0.2-0.2-0.3l3.2-5.1c0.2-0.3,0-0.7-0.4-0.7H6.1c-0.2,0-0.4-0.1-0.4-0.3L4,10
		C3.9,9.7,4.1,9.5,4.4,9.5h0.9c0.2,0,0.3,0.1,0.4,0.2l1.9,2.9c0.1,0.1,0.2,0.2,0.4,0.2h15.6c1.3,0,2.8,0.4,2.8,2.2
		C26.4,15.3,26.4,16.1,23.1,16.1z"/>
</g>
<g>
	<path class="st1" d="M23.6,41.7h-4c-0.1,0-0.2,0-0.3-0.1l-4.7-4.7c-0.1-0.1-0.2-0.1-0.3-0.1h-4.1c-0.4,0-0.6,0.4-0.4,0.7l2.4,3.6
		c0.2,0.3,0,0.7-0.4,0.7H8.6c-0.2,0-0.3-0.1-0.4-0.2l-1.9-2.9c-0.1-0.1-0.2-0.2-0.4-0.2H3c-0.3,0-0.5,0.3-0.4,0.6l2.3,8
		c0.1,0.2,0.2,0.3,0.4,0.3h6.6c0.4,0,0.6,0.4,0.4,0.7l-3,4.7c-0.2,0.3,0,0.7,0.4,0.7h4.1c0.1,0,0.3-0.1,0.3-0.1l5.3-5.8
		c0.1-0.1,0.2-0.1,0.3-0.1h3.4c2.1,0,4.4-0.3,4.4-2.2C27.5,42.9,26,41.7,23.6,41.7z M11.7,37.8h2.1c0.1,0,0.2,0,0.3,0.1l3,3
		c0.3,0.3,0.1,0.8-0.3,0.8h-2.6c-0.2,0-0.3-0.1-0.4-0.2l-2.2-3.4C11.5,38,11.6,37.8,11.7,37.8z M23.1,46.1h-3.9h-0.2l-5.4,6
		c-0.1,0.1-0.2,0.1-0.3,0.1h-2.1c-0.2,0-0.3-0.2-0.2-0.3l3.2-5.1c0.2-0.3,0-0.7-0.4-0.7H6.1c-0.2,0-0.4-0.1-0.4-0.3L4,40
		c-0.1-0.3,0.1-0.6,0.4-0.6h0.9c0.2,0,0.3,0.1,0.4,0.2l1.9,2.9c0.1,0.1,0.2,0.2,0.4,0.2h15.6c1.3,0,2.8,0.4,2.8,2.2
		C26.4,45.3,26.4,46.1,23.1,46.1z"/>
</g>
</svg>
