<?xml version="1.0" encoding="utf-8"?>
<!-- Generator: Adobe Illustrator 25.4.1, SVG Export Plug-In . SVG Version: 6.00 Build 0)  -->
<svg version="1.1" id="Layer_1" xmlns="http://www.w3.org/2000/svg" xmlns:xlink="http://www.w3.org/1999/xlink" x="0px" y="0px"
	 viewBox="0 0 30 30" style="enable-background:new 0 0 30 30;" xml:space="preserve">
<style type="text/css">
	.st0{fill:#ECEDEF;}
</style>
<g>
	<path class="st0" d="M21.7,6.3C21.9,6.1,22,5.9,22,5.7c0-0.2-0.1-0.4-0.3-0.6l-1.8-1.8c-1-1-2.6-1-3.6,0L3.2,16.3
		c-0.5,0.5-0.7,1.1-0.7,1.8c0,0.7,0.3,1.3,0.7,1.8l1.8,1.8c0.3,0.3,0.8,0.3,1.2,0c0,0,0,0,0,0l0.5-0.4c0.5-0.5,1.4-0.5,2,0
		c0.5,0.5,0.5,1.4,0,2l-0.4,0.5C8.1,23.9,8,24.1,8,24.3c0,0.2,0.1,0.4,0.3,0.6l1.8,1.8c0.5,0.5,1.1,0.7,1.8,0.7
		c0.7,0,1.3-0.3,1.8-0.7l13.1-13.1c1-1,1-2.6,0-3.6l-1.8-1.8c-0.3-0.3-0.8-0.3-1.2,0c0,0,0,0,0,0l-0.5,0.4c-0.5,0.5-1.4,0.5-2,0
		c-0.5-0.5-0.5-1.4,0-2L21.7,6.3z M12.5,25.5c-0.3,0.3-0.9,0.3-1.2,0c0,0,0,0,0,0l-1.2-1.2c1.1-1.3,0.9-3.3-0.4-4.4
		c-1.2-1-2.9-1-4,0l-1.2-1.2c-0.2-0.2-0.3-0.4-0.3-0.6c0-0.2,0.1-0.4,0.3-0.6L13,9l8,8L12.5,25.5z M22.3,10.8c0.8,0,1.5-0.3,2-0.8
		l1.2,1.2c0.3,0.3,0.3,0.9,0,1.2c0,0,0,0,0,0l-3.3,3.3l-8-8l3.3-3.3c0.3-0.3,0.9-0.3,1.2,0c0,0,0,0,0,0l1.2,1.2
		c-1.1,1.3-1,3.3,0.3,4.4C20.8,10.6,21.5,10.8,22.3,10.8"/>
</g>
</svg>
