<?xml version="1.0" encoding="utf-8"?>
<!-- Generator: Adobe Illustrator 25.4.1, SVG Export Plug-In . SVG Version: 6.00 Build 0)  -->
<svg version="1.1" id="Layer_1" xmlns="http://www.w3.org/2000/svg" xmlns:xlink="http://www.w3.org/1999/xlink" x="0px" y="0px"
	 viewBox="0 0 30 60" style="enable-background:new 0 0 30 60;" xml:space="preserve">
<style type="text/css">
	.st0{fill:none;stroke:#B0B4BC;stroke-width:1.4113;stroke-miterlimit:10;}
	
		.st1{fill:none;stroke:#B0B4BC;stroke-width:1.5094;stroke-linecap:round;stroke-linejoin:round;stroke-miterlimit:10;stroke-dasharray:1.0978,2.0584;}
	.st2{fill:none;stroke:#3D76C7;stroke-width:1.4113;stroke-miterlimit:10;}
	
		.st3{fill:none;stroke:#3D76C7;stroke-width:1.5094;stroke-linecap:round;stroke-linejoin:round;stroke-miterlimit:10;stroke-dasharray:1.0978,2.0584;}
</style>
<g>
	<ellipse class="st0" cx="5.9" cy="15" rx="2.4" ry="2.3"/>
	<path class="st1" d="M6,12.3c1.2-3.7,4.8-6.4,9-6.4c4.2,0,7.8,2.7,9,6.4"/>
	<path class="st1" d="M24.1,17.6c-1.2,3.7-4.8,6.5-9,6.5c-4.2,0-7.8-2.6-9-6.3"/>
	<ellipse class="st0" cx="24.1" cy="15" rx="2.4" ry="2.3"/>
</g>
<g>
	<ellipse class="st2" cx="5.9" cy="45" rx="2.4" ry="2.3"/>
	<path class="st3" d="M6,42.3c1.2-3.7,4.8-6.4,9-6.4c4.2,0,7.8,2.7,9,6.4"/>
	<path class="st3" d="M24.1,47.6c-1.2,3.7-4.8,6.5-9,6.5c-4.2,0-7.8-2.6-9-6.3"/>
	<ellipse class="st2" cx="24.1" cy="45" rx="2.4" ry="2.3"/>
</g>
</svg>
