<?xml version="1.0" encoding="utf-8"?>
<!-- Generator: Adobe Illustrator 25.4.1, SVG Export Plug-In . SVG Version: 6.00 Build 0)  -->
<svg version="1.1" id="Layer_1" xmlns="http://www.w3.org/2000/svg" xmlns:xlink="http://www.w3.org/1999/xlink" x="0px" y="0px"
	 viewBox="0 0 30 30" style="enable-background:new 0 0 30 30;" xml:space="preserve">
<style type="text/css">
	.st0{fill:#ABAFB2;}
</style>
<g transform="translate(0,-952.36218)">
	<path class="st0" d="M9.9,966.1c2.1,3.3,3.4,4.7,6.8,6.7l2.7-2.7c1.4,0.3,3.2,0.8,4.6,0.8c0.5,0,0.9,0.5,1,0.9l0,4.2
		c0,0.5-0.5,0.9-1,0.9c-11.8,0-18.6-6.6-19-18.1c0-0.4,0.4-0.9,0.9-0.9h4.7c0.5,0,1,0.4,1.1,0.7c-0.1,1.6,0.6,3.5,0.9,4.8L9.9,966.1
		z"/>
</g>
</svg>
