<?xml version="1.0" encoding="utf-8"?>
<!-- Generator: Adobe Illustrator 25.4.1, SVG Export Plug-In . SVG Version: 6.00 Build 0)  -->
<svg version="1.1" id="Layer_1" xmlns="http://www.w3.org/2000/svg" xmlns:xlink="http://www.w3.org/1999/xlink" x="0px" y="0px"
	 viewBox="0 0 30 60" style="enable-background:new 0 0 30 60;" xml:space="preserve">
<style type="text/css">
	.st0{fill:#B0B4BC;stroke:#B0B4BC;stroke-width:0.5;stroke-miterlimit:10;}
	.st1{fill:#3D76C7;stroke:#3D76C7;stroke-width:0.5;stroke-miterlimit:10;}
</style>
<g>
	<g>
		<path class="st0" d="M26.9,22.8H3.1c-0.3,0-0.6-0.3-0.6-0.6v-12c0-0.3,0.3-0.6,0.6-0.6h23.9c0.3,0,0.6,0.3,0.6,0.6v12
			C27.5,22.6,27.2,22.8,26.9,22.8z M3.6,21.7h22.7V10.8H3.6V21.7z"/>
		<g>
			<g>
				<path class="st0" d="M15,20.6c-0.3,0-0.6-0.3-0.6-0.6v-7.5c0-0.3,0.3-0.6,0.6-0.6c0.3,0,0.6,0.3,0.6,0.6V20
					C15.6,20.3,15.3,20.6,15,20.6z"/>
			</g>
			<g>
				<path class="st0" d="M19.1,20.6c-0.3,0-0.6-0.3-0.6-0.6v-7.5c0-0.3,0.3-0.6,0.6-0.6s0.6,0.3,0.6,0.6V20
					C19.7,20.3,19.5,20.6,19.1,20.6z"/>
			</g>
			<g>
				<path class="st0" d="M23.3,20.6c-0.3,0-0.6-0.3-0.6-0.6v-7.5c0-0.3,0.3-0.6,0.6-0.6s0.6,0.3,0.6,0.6V20
					C23.9,20.3,23.6,20.6,23.3,20.6z"/>
			</g>
			<g>
				<path class="st0" d="M10.9,20.6c-0.3,0-0.6-0.3-0.6-0.6v-7.5c0-0.3,0.3-0.6,0.6-0.6s0.6,0.3,0.6,0.6V20
					C11.4,20.3,11.2,20.6,10.9,20.6z"/>
			</g>
			<g>
				<path class="st0" d="M6.7,20.6c-0.3,0-0.6-0.3-0.6-0.6v-7.5c0-0.3,0.3-0.6,0.6-0.6c0.3,0,0.6,0.3,0.6,0.6V20
					C7.3,20.3,7,20.6,6.7,20.6z"/>
			</g>
		</g>
	</g>
	<g>
		<path class="st0" d="M7.3,10.8H4.3c-0.3,0-0.6-0.3-0.6-0.6V7.7c0-0.3,0.3-0.6,0.6-0.6h3.1c0.3,0,0.6,0.3,0.6,0.6v2.5
			C7.9,10.6,7.7,10.8,7.3,10.8z M4.8,9.7h1.9V8.3H4.8V9.7z"/>
		<path class="st0" d="M25.9,10.8h-3.1c-0.3,0-0.6-0.3-0.6-0.6V7.7c0-0.3,0.3-0.6,0.6-0.6h3.1c0.3,0,0.6,0.3,0.6,0.6v2.5
			C26.4,10.6,26.2,10.8,25.9,10.8z M23.4,9.7h1.9V8.3h-1.9V9.7z"/>
	</g>
</g>
<g>
	<g>
		<path class="st1" d="M26.9,52.8H3.1c-0.3,0-0.6-0.3-0.6-0.6v-12c0-0.3,0.3-0.6,0.6-0.6h23.9c0.3,0,0.6,0.3,0.6,0.6v12
			C27.5,52.6,27.2,52.8,26.9,52.8z M3.6,51.7h22.7V40.8H3.6V51.7z"/>
		<g>
			<g>
				<path class="st1" d="M15,50.6c-0.3,0-0.6-0.3-0.6-0.6v-7.5c0-0.3,0.3-0.6,0.6-0.6c0.3,0,0.6,0.3,0.6,0.6V50
					C15.6,50.3,15.3,50.6,15,50.6z"/>
			</g>
			<g>
				<path class="st1" d="M19.1,50.6c-0.3,0-0.6-0.3-0.6-0.6v-7.5c0-0.3,0.3-0.6,0.6-0.6s0.6,0.3,0.6,0.6V50
					C19.7,50.3,19.5,50.6,19.1,50.6z"/>
			</g>
			<g>
				<path class="st1" d="M23.3,50.6c-0.3,0-0.6-0.3-0.6-0.6v-7.5c0-0.3,0.3-0.6,0.6-0.6s0.6,0.3,0.6,0.6V50
					C23.9,50.3,23.6,50.6,23.3,50.6z"/>
			</g>
			<g>
				<path class="st1" d="M10.9,50.6c-0.3,0-0.6-0.3-0.6-0.6v-7.5c0-0.3,0.3-0.6,0.6-0.6s0.6,0.3,0.6,0.6V50
					C11.4,50.3,11.2,50.6,10.9,50.6z"/>
			</g>
			<g>
				<path class="st1" d="M6.7,50.6c-0.3,0-0.6-0.3-0.6-0.6v-7.5c0-0.3,0.3-0.6,0.6-0.6c0.3,0,0.6,0.3,0.6,0.6V50
					C7.3,50.3,7,50.6,6.7,50.6z"/>
			</g>
		</g>
	</g>
	<g>
		<path class="st1" d="M7.3,40.8H4.3c-0.3,0-0.6-0.3-0.6-0.6v-2.5c0-0.3,0.3-0.6,0.6-0.6h3.1c0.3,0,0.6,0.3,0.6,0.6v2.5
			C7.9,40.6,7.7,40.8,7.3,40.8z M4.8,39.7h1.9v-1.4H4.8V39.7z"/>
		<path class="st1" d="M25.9,40.8h-3.1c-0.3,0-0.6-0.3-0.6-0.6v-2.5c0-0.3,0.3-0.6,0.6-0.6h3.1c0.3,0,0.6,0.3,0.6,0.6v2.5
			C26.4,40.6,26.2,40.8,25.9,40.8z M23.4,39.7h1.9v-1.4h-1.9V39.7z"/>
	</g>
</g>
</svg>
