<?xml version="1.0" encoding="utf-8"?>
<!-- Generator: Adobe Illustrator 25.4.1, SVG Export Plug-In . SVG Version: 6.00 Build 0)  -->
<svg version="1.1" id="Layer_1" xmlns="http://www.w3.org/2000/svg" xmlns:xlink="http://www.w3.org/1999/xlink" x="0px" y="0px"
	 viewBox="0 0 30 60" style="enable-background:new 0 0 30 60;" xml:space="preserve">
<style type="text/css">
	.st0{fill:#B0B4BC;stroke:#B0B4BC;stroke-width:0.5;stroke-miterlimit:10;}
	.st1{fill:#3D76C7;stroke:#3D76C7;stroke-width:0.5;stroke-miterlimit:10;}
</style>
<path class="st0" d="M27,5.9H3c-0.3,0-0.5,0.2-0.5,0.5C2.5,6.8,2.7,7,3,7h12.6v1.6h-0.9c-1.2,0-2.2,1-2.2,2.2v0.5H10L8.6,9.7
	C8.3,9.3,7.8,9.1,7.4,9.1H5.5c-0.9,0-1.7,0.8-1.7,1.7c0,0.3,0.1,0.6,0.3,0.9l2.3,3.6c0.5,0.8,1.4,1.3,2.4,1.3h3c0.5,0,1,0.4,1,1
	c0,1.7,1.4,3,3,3h0.9L16.1,23h-3.3c-0.3,0-0.5,0.2-0.5,0.5c0,0.3,0.2,0.5,0.5,0.5h10l0,0l0,0h1.1c0.1,0,0.2,0,0.3-0.1l2.1-1.4
	c0.2-0.2,0.3-0.5,0.2-0.7c-0.2-0.2-0.5-0.3-0.7-0.2c0,0,0,0,0,0l-2,1.3h-0.5l-0.7-2.4h1c1.5,0,2.7-1.2,2.7-2.7v-1.6
	c0-3.3-2.7-6.1-6.1-6.1h-1.4c-0.2-1-1.1-1.6-2.1-1.7V7H27c0.3,0,0.5-0.2,0.5-0.5C27.5,6.2,27.3,5.9,27,5.9 M22.1,23h-4.9l0.5-2.4
	h3.7L22.1,23z M25.2,15.7h-2.8c-1.9,0-3.4-1.5-3.4-3.4v-1h1.3C22.8,11.3,24.9,13.2,25.2,15.7 M17.8,10.8v1.6c0,2.5,2,4.5,4.5,4.5
	h2.9v1.1c0,0.9-0.7,1.7-1.7,1.7h-7.8c-1.1,0-1.9-0.9-1.9-1.9c0-1.1-0.9-2-2-2h-3c-0.6,0-1.1-0.3-1.4-0.8L5,11.2
	c-0.2-0.3-0.1-0.7,0.2-0.9c0.1-0.1,0.2-0.1,0.3-0.1h1.9c0.2,0,0.3,0.1,0.5,0.2l1.6,1.7c0.1,0.1,0.2,0.2,0.4,0.2h3.3
	c0.3,0,0.5-0.2,0.5-0.5v-1.1c0-0.6,0.5-1.1,1.1-1.1h1.9C17.3,9.6,17.8,10.1,17.8,10.8"/>
<path class="st1" d="M27,35.9H3c-0.3,0-0.5,0.2-0.5,0.5C2.5,36.8,2.7,37,3,37h12.6v1.6h-0.9c-1.2,0-2.2,1-2.2,2.2v0.5H10l-1.4-1.6
	c-0.3-0.4-0.8-0.6-1.3-0.6H5.5c-0.9,0-1.7,0.8-1.7,1.7c0,0.3,0.1,0.6,0.3,0.9l2.3,3.6c0.5,0.8,1.4,1.3,2.4,1.3h3c0.5,0,1,0.4,1,1
	c0,1.7,1.4,3,3,3h0.9L16.1,53h-3.3c-0.3,0-0.5,0.2-0.5,0.5s0.2,0.5,0.5,0.5h10l0,0l0,0h1.1c0.1,0,0.2,0,0.3-0.1l2.1-1.4
	c0.2-0.2,0.3-0.5,0.2-0.7c-0.2-0.2-0.5-0.3-0.7-0.2c0,0,0,0,0,0l-2,1.3h-0.5l-0.7-2.4h1c1.5,0,2.7-1.2,2.7-2.7v-1.6
	c0-3.3-2.7-6.1-6.1-6.1h-1.4c-0.2-1-1.1-1.6-2.1-1.7V37H27c0.3,0,0.5-0.2,0.5-0.5C27.5,36.2,27.3,35.9,27,35.9 M22.1,53h-4.9
	l0.5-2.4h3.7L22.1,53z M25.2,45.7h-2.8c-1.9,0-3.4-1.5-3.4-3.4v-1h1.3C22.8,41.3,24.9,43.2,25.2,45.7 M17.8,40.8v1.6
	c0,2.5,2,4.5,4.5,4.5h2.9v1.1c0,0.9-0.7,1.7-1.7,1.7h-7.8c-1.1,0-1.9-0.9-1.9-1.9c0-1.1-0.9-2-2-2h-3c-0.6,0-1.1-0.3-1.4-0.8L5,41.2
	c-0.2-0.3-0.1-0.7,0.2-0.9c0.1-0.1,0.2-0.1,0.3-0.1h1.9c0.2,0,0.3,0.1,0.5,0.2l1.6,1.7c0.1,0.1,0.2,0.2,0.4,0.2h3.3
	c0.3,0,0.5-0.2,0.5-0.5v-1.1c0-0.6,0.5-1.1,1.1-1.1h1.9C17.3,39.6,17.8,40.1,17.8,40.8"/>
</svg>
