<?xml version="1.0" encoding="utf-8"?>
<!-- Generator: Adobe Illustrator 25.4.1, SVG Export Plug-In . SVG Version: 6.00 Build 0)  -->
<svg version="1.1" id="Layer_1" xmlns="http://www.w3.org/2000/svg" xmlns:xlink="http://www.w3.org/1999/xlink" x="0px" y="0px"
	 viewBox="0 0 30 30" style="enable-background:new 0 0 30 30;" xml:space="preserve">
<style type="text/css">
	.st0{fill-rule:evenodd;clip-rule:evenodd;fill:#ABAFB2;}
</style>
<path class="st0" d="M5.3,11.7c-0.3-0.2-0.4-0.5-0.2-0.8c0.2-0.3,0.5-0.4,0.8-0.2l1.4,0.8v-1.2c0-0.3,0.3-0.6,0.6-0.6
	c0.3,0,0.6,0.3,0.6,0.6v1.2l1.4-0.8c0.3-0.2,0.6-0.1,0.8,0.2c0.2,0.3,0.1,0.6-0.2,0.8l-1.4,0.8l1.4,0.8c0.3,0.2,0.4,0.5,0.2,0.8
	s-0.5,0.4-0.8,0.2l-1.4-0.8v1.2c0,0.3-0.3,0.6-0.6,0.6c-0.3,0-0.6-0.3-0.6-0.6v-1.2l-1.4,0.8c-0.3,0.2-0.6,0.1-0.8-0.2
	c-0.2-0.3-0.1-0.6,0.2-0.8l1.4-0.8L5.3,11.7L5.3,11.7z M21.5,10.3c0-0.3,0.3-0.6,0.6-0.6c0.3,0,0.6,0.3,0.6,0.6v1.2l1.4-0.8
	c0.3-0.2,0.6-0.1,0.8,0.2c0.2,0.3,0.1,0.6-0.2,0.8l-1.4,0.8l1.4,0.8c0.3,0.2,0.4,0.5,0.2,0.8c-0.2,0.3-0.5,0.4-0.8,0.2l-1.4-0.8v1.2
	c0,0.3-0.3,0.6-0.6,0.6c-0.3,0-0.6-0.3-0.6-0.6v-1.2l-1.4,0.8c-0.3,0.2-0.6,0.1-0.8-0.2s-0.1-0.6,0.2-0.8l1.4-0.8l-1.4-0.8
	c-0.3-0.2-0.4-0.5-0.2-0.8c0.2-0.3,0.5-0.4,0.8-0.2l1.4,0.8V10.3z M14.4,10.3c0-0.3,0.3-0.6,0.6-0.6c0.3,0,0.6,0.3,0.6,0.6v1.2
	l1.4-0.8c0.3-0.2,0.6-0.1,0.8,0.2c0.2,0.3,0.1,0.6-0.2,0.8l-1.4,0.8l1.4,0.8c0.3,0.2,0.4,0.5,0.2,0.8c-0.2,0.3-0.5,0.4-0.8,0.2
	l-1.4-0.8v1.2c0,0.3-0.3,0.6-0.6,0.6c-0.3,0-0.6-0.3-0.6-0.6v-1.2L13,14.3c-0.3,0.2-0.6,0.1-0.8-0.2c-0.2-0.3-0.1-0.6,0.2-0.8
	l1.4-0.8l-1.4-0.8c-0.3-0.2-0.4-0.5-0.2-0.8c0.2-0.3,0.5-0.4,0.8-0.2l1.4,0.8V10.3z"/>
<path class="st0" d="M5.7,20.3c-0.3,0-0.6-0.3-0.6-0.6c0-0.3,0.3-0.6,0.6-0.6h18.6c0.3,0,0.6,0.3,0.6,0.6c0,0.3-0.3,0.6-0.6,0.6H5.7
	z"/>
</svg>
