<?xml version="1.0" encoding="utf-8"?>
<!-- Generator: Adobe Illustrator 25.4.1, SVG Export Plug-In . SVG Version: 6.00 Build 0)  -->
<svg version="1.1" id="Layer_1" xmlns="http://www.w3.org/2000/svg" xmlns:xlink="http://www.w3.org/1999/xlink" x="0px" y="0px"
	 viewBox="0 0 151 45" style="enable-background:new 0 0 151 45;" xml:space="preserve">
<style type="text/css">
	.st0{fill-rule:evenodd;clip-rule:evenodd;fill:url(#VTOL_up_00000098941914177233180740000017151937439985125772_);}
	.st1{fill:#C60E3B;}
</style>
<g>
	
		<linearGradient id="VTOL_up_00000086650088882238855120000012094694006121684919_" gradientUnits="userSpaceOnUse" x1="75.5" y1="44.6922" x2="75.5" y2="20.6795">
		<stop  offset="0" style="stop-color:#A4A7B6"/>
		<stop  offset="1" style="stop-color:#D9DAE4"/>
	</linearGradient>
	
		<path id="VTOL_up" style="fill-rule:evenodd;clip-rule:evenodd;fill:url(#VTOL_up_00000086650088882238855120000012094694006121684919_);" d="
		M13.2,44.7l12.5-23.6h-5.4l-7.1,14.1L6,21.1H0.5L13.2,44.7z M33.2,43.7h4.9V25.6h7.2v-4.5H26l0,4.5h7.2L33.2,43.7L33.2,43.7z
		 M58.8,44.2C65.7,44.2,71,39,71,32.4s-5.3-11.7-12.2-11.7s-12.2,5.1-12.2,11.7S51.9,44.2,58.8,44.2z M58.8,39.5
		c-4,0-7.2-2.9-7.2-7.1s3.2-7.1,7.2-7.1s7.2,2.9,7.2,7.1S62.8,39.5,58.8,39.5z M75.8,43.7h16.4v-4.5H80.7l0-18.1h-5L75.8,43.7
		L75.8,43.7z M115,44c7.1,0,10.8-4.4,10.8-11.3V21.1h-5v11.6c0,4.3-1.7,6.7-5.8,6.7c-4.1,0-5.8-2.5-5.8-6.8V21.1h-5v11.5
		C104.2,39.7,107.9,44,115,44L115,44z M131.5,43.7h5v-7.5h5.8c5.3,0,8.2-3,8.2-7.5c0-4.5-3.3-7.6-8.5-7.6h-10.5L131.5,43.7
		L131.5,43.7z M136.4,31.8v-6.3h5.6c2.2,0,3.4,1.3,3.4,3.1c0,1.9-1.2,3.1-3.4,3.1L136.4,31.8L136.4,31.8z"/>
	<polygon class="st1" points="150.5,8.3 150.5,15.7 142.5,7.8 134.5,15.7 134.5,8.3 142.5,0.3 	"/>
</g>
</svg>
